<svg id="_レイヤー_1" data-name="レイヤー 1" xmlns="http://www.w3.org/2000/svg" xmlns:xlink="http://www.w3.org/1999/xlink" viewBox="0 0 538.812 309.058">
  <defs>
    <linearGradient id="_名称未設定グラデーション_225" data-name="名称未設定グラデーション 225" x1="0" y1="154.529" x2="538.812" y2="154.529" gradientUnits="userSpaceOnUse">
      <stop offset="0" stop-color="#dceaed"/>
      <stop offset=".442" stop-color="#aad5d4"/>
      <stop offset=".802" stop-color="#88c7c3"/>
      <stop offset=".997" stop-color="#7cc2bd"/>
    </linearGradient>
    <linearGradient id="_名称未設定グラデーション_225-2" data-name="名称未設定グラデーション 225" x1="455.216" y1="130.886" x2="504.18" y2="130.886" xlink:href="#_名称未設定グラデーション_225"/>
    <linearGradient id="_名称未設定グラデーション_225-3" data-name="名称未設定グラデーション 225" x1="468.586" y1="105.917" x2="492.528" y2="105.917" xlink:href="#_名称未設定グラデーション_225"/>
  </defs>
  <path d="M408.817,138.484l19.326-19.093-25.632-7.411-80.902,197.079-70.185-31.254-80.382,30.777-108.81-105.954L.174,141.8c-.33-1.47-.344-7.764,1.337-7.521l7.422,1.071,129.365,74.214L81.287,17.638l1.063-5.479c.267-1.374,3.347-1.398,5.868-1.537l80.947,53.233,1.139-62.582c4.638-3.418,9.651.734,13.871,4.386l118.038,102.179c5.823,5.041,8.599,11.77,9.921,19.083l7.635,42.241,60.203-83.669,30.954-8.365,31.396,28.347,48.228-48.049,47.185,47.464c1.927,1.939,1.081,8.412-1.041,10.534l-80.721,80.703-46.819-45.452c-2.646-2.569-2.692-9.861-.335-12.19ZM297.718,199.922l14.355-19.422-11.477-60.946L179.303,14.253l.038,56.466,103.322,68.672,15.055,60.531ZM234.889,257.915L103.919,53.478l46.619,163c27.077,15.772,54.174,30.063,84.351,41.437ZM417.018,144.468l38.953,38.602,72.289-72.766-38.685-38.855-40.339,40.697c6.318,4.143,9.227,8.637,8.682,14.794l-20.088-4.083-20.813,21.612ZM430.352,109.021l-20.231-18.171-3.942,12.667,24.173,5.504ZM290.787,210.246l-11.87-43.278-17.947,83.788,29.818-40.51ZM311.362,294.406l-17.678-71.383-34.114,47.904,51.792,23.479ZM239.095,272.325l-83.993-41.383,20.747,65.373,63.247-23.991Z" style="fill: url(#_名称未設定グラデーション_225);"/>
  <path d="M463.855,154.37c-1.134,1.147-8.825,1.161-8.636-.315s1.248-5.466,2.344-6.569l38.807-39.04c1.241-1.248,5.231-1.989,6.575-1.857,1.796.176,1.458,6.744.113,8.105l-39.203,39.676Z" style="fill: url(#_名称未設定グラデーション_225-2);"/>
  <path d="M476.685,116.384l-6.928,2.281c-1.466.483-1.505-6.442-.401-7.594l17.182-17.928,5.339,1.53c1.544.442.015,6.303-1.187,7.521l-14.004,14.19Z" style="fill: url(#_名称未設定グラデーション_225-3);"/>
</svg>
