<svg id="logo-c-note-white" xmlns="http://www.w3.org/2000/svg" viewBox="0 0 538.81 309.06">
  <g fill="white">
    <path d="M408.82,138.48l19.33-19.09-25.63-7.41-80.9,197.08-70.19-31.25-80.38,30.78-108.81-105.95L.17,141.8c-.33-1.47-.34-7.76,1.34-7.52l7.42,1.07,129.36,74.21L81.29,17.64l1.06-5.48c.27-1.37,3.35-1.4,5.87-1.54l80.95,53.23,1.14-62.58c4.64-3.42,9.65.73,13.87,4.39l118.04,102.18c5.82,5.04,8.6,11.77,9.92,19.08l7.63,42.24,60.2-83.67,30.95-8.37,31.4,28.35,48.23-48.05,47.18,47.46c1.93,1.94,1.08,8.41-1.04,10.53l-80.72,80.7-46.82-45.45c-2.65-2.57-2.69-9.86-.33-12.19ZM297.72,199.92l14.35-19.42-11.48-60.95L179.3,14.25l.04,56.47,103.32,68.67,15.06,60.53ZM261.95,198.28l11.55-53.56L107.14,36.85l141.26,222.8,13.56-61.38ZM234.89,257.91L103.92,53.48l46.62,163c27.08,15.77,54.17,30.06,84.35,41.44ZM417.02,144.47l38.95,38.6,72.29-72.77-38.68-38.86-40.34,40.7c6.32,4.14,9.23,8.64,8.68,14.79l-20.09-4.08-20.81,21.61ZM300.49,212.93l19.8,72.74,80.36-195.47-15.88,5.58-84.28,117.15ZM430.35,109.02l-20.23-18.17-3.94,12.67,24.17,5.5ZM142.47,223.28l-104.57-59.36,26.73,27.2,94.89,91.64c-4.17-21.73-10.52-39.06-17.05-59.47ZM290.79,210.25l-11.87-43.28-17.95,83.79,29.82-40.51ZM311.36,294.41l-17.68-71.38-34.11,47.9,51.79,23.48ZM239.09,272.32l-83.99-41.38,20.75,65.37,63.25-23.99Z"/>
    <path d="M463.85,154.37c-1.13,1.15-8.82,1.16-8.64-.32s1.25-5.47,2.34-6.57l38.81-39.04c1.24-1.25,5.23-1.99,6.57-1.86,1.8.18,1.46,6.74.11,8.11l-39.2,39.68Z"/>
    <path d="M476.69,116.38l-6.93,2.28c-1.47.48-1.5-6.44-.4-7.59l17.18-17.93,5.34,1.53c1.54.44.01,6.3-1.19,7.52l-14,14.19Z"/>
  </g>
</svg>
